<svg xmlns="http://www.w3.org/2000/svg" width="96" height="21" viewBox="0 0 96 21" fill="none">
  <path d="M10.3802 10.0675L19.2748 0.537354H14.5447L5.09816 10.4603V0.537354H0.847656V20.2692H5.09816V15.617L7.58131 13.0398L13.4964 20.2692H18.4876L10.9819 10.825L10.3802 10.0667V10.0675Z" fill="#0052FE"/>
  <path d="M32.9824 9.30681C31.6601 7.20927 29.2339 5.91187 26.276 5.91187C23.1148 5.91187 20.5482 7.39484 19.2965 9.74463C18.7559 10.7512 18.4611 11.9201 18.4611 13.1966C18.4611 17.456 21.7596 20.4814 26.276 20.4814C30.7924 20.4814 34.0661 17.456 34.0661 13.1966C34.0661 11.7289 33.6765 10.4066 32.9824 9.30681V9.30681ZM26.276 17.1145C24.2162 17.1145 22.6312 15.642 22.6312 13.1966C22.6312 11.0935 23.8009 9.71009 25.4389 9.36465C25.7064 9.30601 25.9868 9.27709 26.276 9.27709C26.4793 9.27709 26.6745 9.28994 26.8665 9.32127C28.625 9.57513 29.8935 10.9898 29.8935 13.1966C29.8935 15.642 28.3366 17.1145 26.2768 17.1145H26.276Z" fill="#0052FE"/>
  <path d="M40.9306 6.12207H36.8118V20.2698H40.9306V6.12207Z" fill="#0052FE"/>
  <path d="M53.3954 5.91187C51.4673 5.91187 49.8036 6.57061 48.695 7.77884V6.12234H44.761V20.2701H48.8789V13.2745C48.8789 12.2463 49.1007 11.4357 49.4951 10.834C50.0928 9.90611 51.0889 9.46346 52.2867 9.46346C53.9055 9.46346 54.9193 10.2933 55.125 12.0808C55.1515 12.3041 55.1643 12.5467 55.1643 12.8022V20.2693H57.433L59.2855 17.697V12.1723C59.2855 7.85757 56.7493 5.91187 53.3954 5.91187V5.91187Z" fill="#0052FE"/>
  <path d="M80.6955 0.469971L60.489 20.2701H66.7784L68.6244 17.6455L79.08 2.76915L80.6955 0.469971Z" fill="url(#paint0_linear_177003_11)"/>
  <path d="M74.7395 0.469971L74.0936 1.36811L63.953 15.4556L60.489 20.2701L80.6955 0.469971H74.7395Z" fill="url(#paint1_linear_177003_11)"/>
  <path d="M78.6952 16.8124L78.4342 16.4428C78.2164 16.1343 77.8622 15.9512 77.4862 15.9512H72.7328C72.5569 15.9512 72.4203 16.0556 72.3552 16.1946L81.1414 20.27L78.6952 16.8124Z" fill="#F69300"/>
  <path d="M72.3552 16.1948C72.2973 16.3185 72.2965 16.4696 72.3825 16.6013L73.3586 18.0867H73.361L74.7966 20.2702H81.1422L72.356 16.1948H72.3552Z" fill="url(#paint2_linear_177003_11)"/>
  <path d="M69.4985 4.13477L67.9938 1.92556L67.0025 0.470703H60.7942L69.4013 4.70515C69.57 4.57902 69.6334 4.3332 69.4993 4.13477H69.4985Z" fill="url(#paint3_linear_177003_11)"/>
  <path d="M60.7935 0.47004L63.4421 4.28835C63.4533 4.30361 63.4638 4.31647 63.475 4.33173C63.6943 4.61853 64.0342 4.78803 64.3973 4.78803H69.1531C69.2503 4.78803 69.333 4.75429 69.4013 4.70368L60.7943 0.469238L60.7935 0.47004Z" fill="#F69300"/>
  <path d="M89.4297 1.22611H87.7572V5.61238H86.627V1.22611H84.9774V0.390625H89.4297V1.22611ZM91.5416 0.390625L92.9458 4.16189L94.3442 0.390625H95.8226V5.61238H94.681V4.16189L94.8066 1.69026L93.3282 5.61238H92.5576L91.085 1.69606L91.1991 4.16189V5.61238H90.0747V0.390625H91.5416V0.390625Z" fill="black"/>
  <defs>
    <linearGradient id="paint0_linear_177003_11" x1="76.1558" y1="5.78331" x2="68.3272" y2="14.8402" gradientUnits="userSpaceOnUse">
      <stop stop-color="#FFAC00"/>
      <stop offset="1" stop-color="#FE7801"/>
    </linearGradient>
    <linearGradient id="paint1_linear_177003_11" x1="60.489" y1="10.3704" x2="80.6955" y2="10.3704" gradientUnits="userSpaceOnUse">
      <stop stop-color="#FFCE00"/>
      <stop offset="1" stop-color="#FFB003"/>
    </linearGradient>
    <linearGradient id="paint2_linear_177003_11" x1="72.3142" y1="18.2329" x2="81.1414" y2="18.2329" gradientUnits="userSpaceOnUse">
      <stop stop-color="#FE8B01"/>
      <stop offset="1" stop-color="#FE7801"/>
    </linearGradient>
    <linearGradient id="paint3_linear_177003_11" x1="60.7934" y1="2.58752" x2="69.5716" y2="2.58752" gradientUnits="userSpaceOnUse">
      <stop stop-color="#FFCE00"/>
      <stop offset="1" stop-color="#FFC101"/>
    </linearGradient>
  </defs>
</svg>